<svg width="879" height="879" viewBox="0 0 879 879" fill="none" xmlns="http://www.w3.org/2000/svg">
<g clip-path="url(#clip0_819_105)">
<path d="M613.753 197.068C563.35 200.895 557.13 234.471 551.547 244.038C546.762 260.78 548.561 273.27 551.547 279.914L604.421 337.316H547V394.717C565.502 417.678 612.69 427.207 632.893 425.879C687.124 423.327 720.354 389.205 730.189 372.463C767.194 295.927 721.151 265.1 693.504 259.254C679.468 206.954 634.488 196.005 613.753 197.068Z" fill="#5E704F"/>
<path d="M635.311 360L635.311 490M671 374.096L636.933 406.988M632.067 406.988L598 374.096" stroke="#F5F3EB" stroke-width="14" stroke-linecap="round"/>
<path d="M265.406 348.914L397.194 221L528.983 348.914V471.233C619.17 481.466 669.239 508.008 683 520C454.356 461.159 223.065 491.219 136 513.604C182.364 489.301 241.589 475.23 265.406 471.233V348.914Z" fill="#5E704F"/>
<path d="M395.412 140L212 328H248.682L395.412 181.249L545.33 328H586L395.412 140Z" fill="#5E704F"/>
<rect x="351" y="355" width="95" height="77" fill="#F5F3EB"/>
<line x1="400" y1="355" x2="400" y2="432" stroke="#5E704F" stroke-width="2"/>
<line x1="351" y1="397" x2="446" y2="397" stroke="#5E704F" stroke-width="2"/>
<path d="M356.893 649.4C351.36 649.4 346.226 648.533 341.493 646.8C336.826 645 332.76 642.467 329.293 639.2C325.893 635.933 323.226 632.1 321.293 627.7C319.36 623.233 318.393 618.333 318.393 613C318.393 607.667 319.36 602.8 321.293 598.4C323.226 593.933 325.893 590.067 329.293 586.8C332.76 583.533 336.826 581.033 341.493 579.3C346.226 577.5 351.36 576.6 356.893 576.6C363.36 576.6 369.126 577.733 374.193 580C379.326 582.267 383.593 585.533 386.993 589.8L374.393 601.2C372.126 598.533 369.626 596.5 366.893 595.1C364.226 593.7 361.226 593 357.893 593C355.026 593 352.393 593.467 349.993 594.4C347.593 595.333 345.526 596.7 343.793 598.5C342.126 600.233 340.793 602.333 339.793 604.8C338.86 607.267 338.393 610 338.393 613C338.393 616 338.86 618.733 339.793 621.2C340.793 623.667 342.126 625.8 343.793 627.6C345.526 629.333 347.593 630.667 349.993 631.6C352.393 632.533 355.026 633 357.893 633C361.226 633 364.226 632.3 366.893 630.9C369.626 629.5 372.126 627.467 374.393 624.8L386.993 636.2C383.593 640.4 379.326 643.667 374.193 646C369.126 648.267 363.36 649.4 356.893 649.4ZM442.738 578H462.538V648H442.738V578ZM415.738 648H395.938V578H415.738V648ZM444.138 620.7H414.338V604.3H444.138V620.7ZM493.078 648V589.3L497.478 593.7H471.578V578H533.978V593.7H508.178L512.578 589.3V648H493.078ZM240.855 712.3C244.789 713.433 247.989 713.8 250.455 713.4C252.989 712.933 255.222 711.267 257.155 708.4L260.555 703.4L262.255 701.5L284.055 658H303.355L274.355 712.1C271.489 717.433 268.055 721.567 264.055 724.5C260.122 727.433 255.789 729.1 251.055 729.5C246.322 729.9 241.355 729.033 236.155 726.9L240.855 712.3ZM261.955 717.4L229.955 658H250.855L272.755 703.4L261.955 717.4ZM299.884 728L300.684 712.5C301.151 712.567 301.584 712.633 301.984 712.7C302.384 712.7 302.751 712.7 303.084 712.7C304.751 712.7 306.051 712.3 306.984 711.5C307.984 710.633 308.718 709.467 309.184 708C309.718 706.533 310.084 704.833 310.284 702.9C310.551 700.9 310.718 698.733 310.784 696.4L311.584 673.8H360.584V728H341.584V684.6L345.784 688.9H324.084L328.084 684.4L327.484 697.2C327.284 702.067 326.851 706.5 326.184 710.5C325.584 714.433 324.618 717.8 323.284 720.6C321.951 723.4 320.118 725.567 317.784 727.1C315.518 728.567 312.618 729.3 309.084 729.3C307.818 729.3 306.384 729.167 304.784 728.9C303.251 728.7 301.618 728.4 299.884 728ZM430.453 728V673.8H449.353V728H430.453ZM404.353 690.6C411.553 690.667 416.92 692.267 420.453 695.4C424.053 698.533 425.853 703 425.853 708.8C425.853 714.8 423.786 719.533 419.653 723C415.52 726.4 409.62 728.067 401.953 728H373.353V673.8H392.253V690.6H404.353ZM400.053 715C402.32 715 404.086 714.467 405.353 713.4C406.62 712.333 407.253 710.7 407.253 708.5C407.253 706.233 406.62 704.633 405.353 703.7C404.153 702.767 402.386 702.267 400.053 702.2H392.253V714.9L400.053 715ZM490.42 729.4C486.02 729.4 481.92 728.767 478.12 727.5C474.387 726.233 471.12 724.233 468.32 721.5C465.587 718.767 463.42 715.2 461.82 710.8C460.287 706.4 459.52 701.067 459.52 694.8C459.52 690.6 459.887 686.733 460.62 683.2C461.354 679.667 462.454 676.433 463.92 673.5C465.454 670.5 467.387 667.867 469.72 665.6C472.12 663.333 474.92 661.433 478.12 659.9C481.32 658.367 484.987 657.2 489.12 656.4L515.42 651.4L518.02 667.3L495.22 671.6C493.82 671.867 492.287 672.2 490.62 672.6C489.02 673 487.454 673.6 485.92 674.4C484.387 675.133 482.954 676.167 481.62 677.5C480.354 678.833 479.32 680.6 478.52 682.8C477.787 684.933 477.42 687.6 477.42 690.8C477.42 691.733 477.454 692.5 477.52 693.1C477.654 693.633 477.754 694.267 477.82 695C477.887 695.667 477.92 696.7 477.92 698.1L472.62 693.2C474.22 690.4 476.12 688.033 478.32 686.1C480.587 684.167 483.187 682.667 486.12 681.6C489.054 680.533 492.32 680 495.92 680C501.187 680 505.72 681.033 509.52 683.1C513.32 685.1 516.22 687.9 518.22 691.5C520.287 695.033 521.32 699.067 521.32 703.6C521.32 708.933 519.987 713.533 517.32 717.4C514.654 721.2 510.987 724.167 506.32 726.3C501.72 728.367 496.42 729.4 490.42 729.4ZM490.92 715C493.12 715 495.02 714.533 496.62 713.6C498.287 712.667 499.587 711.367 500.52 709.7C501.454 708.033 501.92 706.167 501.92 704.1C501.92 701.967 501.454 700.133 500.52 698.6C499.587 697.067 498.287 695.867 496.62 695C495.02 694.133 493.12 693.7 490.92 693.7C488.72 693.7 486.754 694.133 485.02 695C483.354 695.867 482.054 697.033 481.12 698.5C480.187 699.967 479.72 701.733 479.72 703.8C479.72 705.867 480.187 707.767 481.12 709.5C482.054 711.233 483.354 712.6 485.02 713.6C486.754 714.533 488.72 715 490.92 715ZM568.091 728L551.591 702.7L566.891 693.7L590.491 728H568.091ZM530.091 728V673.8H549.091V728H530.091ZM543.491 708.7V693.8H563.091V708.7H543.491ZM568.791 703L550.991 701.2L569.191 673.8H589.291L568.791 703ZM627.914 728V717.9L626.614 715.4V696.8C626.614 693.8 625.681 691.5 623.814 689.9C622.014 688.233 619.114 687.4 615.114 687.4C612.514 687.4 609.881 687.833 607.214 688.7C604.547 689.5 602.281 690.633 600.414 692.1L594.014 679.2C597.081 677.2 600.747 675.667 605.014 674.6C609.347 673.467 613.647 672.9 617.914 672.9C626.714 672.9 633.514 674.933 638.314 679C643.181 683 645.614 689.3 645.614 697.9V728H627.914ZM611.914 728.9C607.581 728.9 603.914 728.167 600.914 726.7C597.914 725.233 595.614 723.233 594.014 720.7C592.481 718.167 591.714 715.333 591.714 712.2C591.714 708.867 592.547 706 594.214 703.6C595.947 701.133 598.581 699.267 602.114 698C605.647 696.667 610.214 696 615.814 696H628.614V705.9H618.414C615.347 705.9 613.181 706.4 611.914 707.4C610.714 708.4 610.114 709.733 610.114 711.4C610.114 713.067 610.747 714.4 612.014 715.4C613.281 716.4 615.014 716.9 617.214 716.9C619.281 716.9 621.147 716.4 622.814 715.4C624.547 714.333 625.814 712.733 626.614 710.6L629.214 717.6C628.214 721.333 626.247 724.167 623.314 726.1C620.447 727.967 616.647 728.9 611.914 728.9Z" fill="#5E704F"/>
<circle cx="439.5" cy="439.5" r="434.5" stroke="#5E704F" stroke-width="10"/>
</g>
<defs>
<clipPath id="clip0_819_105">
<rect width="879" height="879" fill="white"/>
</clipPath>
</defs>
</svg>

